<svg width="237" height="111" viewBox="0 0 237 111" fill="none" xmlns="http://www.w3.org/2000/svg">
<path d="M55.5333 0.399956C53.2667 0.666618 49.9333 2.26662 48.3333 3.99995C45.5333 7.06662 40.4667 23.2 38.4667 36L37.6667 41.3333L39.8 36.6666C42.4667 31.3333 42.4667 30.8 42.7333 25.0666C42.8667 22.5333 44.2 19.6 46.0667 17.8666C47.6667 16.2666 48.2 15.3333 47.4 15.8666C46.3333 16.4 45.6667 16 45.6667 14.8C45.6667 13.6 46.6 12.6666 47.6667 12.6666C48.8667 12.6666 49.6667 11.8666 49.5333 10.9333C49 8.26662 52.6 1.99995 54.6 1.99995C55.8 1.99995 56.0667 2.66662 55.5333 3.59995C55 4.53329 55.9333 4.13329 57.6667 2.66662C60.3333 0.399956 60.7333 0.266617 59.9333 2.26662C59 4.79996 61 5.59995 62.3333 3.33329C62.7333 2.53329 63.6667 1.99995 64.3333 1.99995C65 1.99995 64.2 4.66662 62.4667 7.99995C59 14.4 57.1333 23.8666 54.3333 48.4L52.4667 64L53 46.6666C53.2667 37.0666 53.9333 27.8666 54.4667 26.1333C55.1333 24 55 23.2 53.9333 23.7333C51 25.7333 49.2667 42.5333 50.2 62.8C51.4 88.9333 51.4 88.6666 53.2667 87.0666C54.4667 86.1333 55 87.2 55.6667 90.9333C56.0667 93.7333 57.4 98 58.4667 100.4C60.3333 104.667 60.0667 107.333 57.8 107.333C57.1333 107.333 56.2 106 55.6667 104.267L54.6 101.333L54.0667 104.267C53.4 107.6 51.6667 108.267 50.2 105.867C49.5333 104.8 49 104.8 48.3333 106C47.8 106.933 46.6 107.2 45.8 106.8C45 106.267 44.6 105.333 45 104.667C45.4 104 45.1333 103.2 44.3333 102.667C41.8 101.067 44.0667 99.8666 49.5333 100C53.1333 100 55 99.4666 55 98.4C55 97.2 53.8 96.8 51.6667 97.2C49.6667 97.6 48.3333 97.2 48.3333 96.2666C48.3333 95.3333 47.8 95.4666 47 96.6666C46.0667 98.1333 45.6667 98.1333 45.6667 96.9333C45.6667 96 45.1333 95.4666 44.4667 96C43.8 96.4 42.7333 96 42.2 95.2C41.6667 94.1333 41.8 94 42.7333 94.5333C43.6667 95.0666 44.3333 94.6666 44.3333 93.3333C44.3333 92.1333 43.6667 91.6 43 92C38.6 94.6666 34.6 66.1333 37.4 51.6C38.0667 47.8666 38.2 44.6666 37.8 44.6666C36.0667 44.6666 33.6667 55.4666 33.6667 62.9333C33.6667 67.2 33 74.5333 32.2 79.2C31.2667 84.9333 31.2667 88.9333 32.2 91.6C33 93.7333 33.1333 95.0666 32.4667 94.8C31.9333 94.4 30.3333 90 29 85.0666C27.5333 80.1333 26.2 76.9333 25.9333 78.2666C25.6667 79.4666 26.4667 83.8666 27.6667 88C29.4 93.7333 30.7333 95.7333 33.2667 96.8C38.0667 98.5333 38.2 98.4 35.6667 94.5333C34.4667 92.5333 34.0667 91.4666 35 92C36.0667 92.6666 36.3333 92.2666 35.9333 90.5333C34.7333 86.2666 33.2667 73.3333 34.2 74C34.6 74.5333 36.2 81.0666 37.8 88.6666C41.6667 107.6 42.4667 108.667 52.0667 108.667C62.4667 108.667 63.4 107.867 60.8667 100.8C59.4 96.4 58.8667 87.8666 58.8667 64.2666C58.7333 31.3333 60.4667 17.4666 65.8 7.06662C67.1333 4.39996 68.3333 1.86662 68.3333 1.46662C68.3333 0.666618 60.2 -4.57764e-05 55.5333 0.399956Z" fill="#9A69AB"/>
<path d="M74.3334 0.39996C71.5334 0.933296 68.3334 4.13329 68.3334 6.39996C68.3334 7.19996 69.4 6.79996 70.7334 5.59996C72.0667 4.26663 73.5334 3.7333 73.9334 4.13329C74.4667 4.53329 76.2 4.13329 77.8 3.19996L80.8667 1.59996L78.4667 5.33329C76.2 8.79996 76.2 9.19996 78.2 10.2666C79.4 10.9333 80.0667 12 79.6667 12.6666C79.2667 13.3333 79.5334 14.1333 80.3334 14.6666C81.1334 15.0666 81.6667 14.1333 81.6667 12.4C81.6667 7.99996 83.1334 3.33329 84.4667 3.33329C85.1334 3.33329 85.2667 4.26663 84.8667 5.33329C84.3334 6.79996 84.6 7.06663 86.0667 6.66663C87.4 6.13329 88.2 6.9333 88.7334 9.59996C89.1334 11.6 88.8667 13.4666 88.2 13.7333C87.5334 14 87.5334 15.2 88.0667 16.4C88.7334 17.6 89.2667 24 89.4 30.6666C89.5334 37.2 90.3334 43.2 91.1334 44C92.2 44.9333 92.3334 41.0666 91.8 30.6666C91.4 22.5333 91.1334 14.1333 91.1334 11.8666C91 3.86663 83.6667 -1.20004 74.3334 0.39996Z" fill="#9A69AB"/>
<path d="M150.467 1.7333C150.067 2.39996 150.333 6.9333 151 12.1333C152.6 24.1333 153.267 51.3333 152.067 51.3333C151.4 51.3333 151 49.4666 151 47.3333C151 45.0666 150.333 43.3333 149.667 43.3333C148.733 43.3333 148.6 38.2666 149.133 28.4C149.8 17.3333 149.667 13.8666 148.6 14.5333C147.533 15.2 147 20.4 147 30C147 41.8666 146.6 44.5333 144.867 45.2C143.667 45.6 131.533 46 117.8 46H92.7333L93.2667 49.3333C93.9333 52.5333 94.0667 52.5333 108.733 52.5333C118.467 52.5333 123 52.1333 121.667 51.3333C120.6 50.6666 118.733 50.4 117.4 50.8C116.2 51.0666 114.867 50.8 114.333 50C113.8 49.2 115.933 48.6666 120.2 48.6666C125.933 48.6666 126.867 48.9333 126.2 50.9333C125.533 53.2 125.533 53.2 127 50.9333C128.867 48.1333 133.533 48 134.467 50.6666C135 51.7333 135.8 52.6666 136.467 52.6666C137 52.6666 137.267 51.7333 136.867 50.6666C136.333 49.6 136.733 48.6666 137.533 48.6666C138.333 48.6666 139 49.6 139 50.8C139 51.8666 139.667 52.4 140.333 52C141.133 51.6 141.667 52.1333 141.667 53.3333C141.667 54.6666 141 55.0666 140.067 54.5333C139.133 53.8666 138.867 54.2666 139.267 55.6C139.933 57.2 139.267 57.4666 136.6 57.2C134.6 56.9333 122.867 56.6666 110.467 56.5333C90.0667 56.4 87.6667 56.5333 86.0667 58.8C84.4667 60.9333 84.3333 60.9333 84.3333 57.6C84.3333 55.0666 83.6667 54 82.0667 54C80.2 54 80.0667 54.2666 81.4 55.2C82.7333 56 82.8667 57.4666 81.9333 60.8C80.6 65.8666 80.8667 82.4 82.4667 84.8C83.2667 86.2666 84.0667 89.7333 84.6 95.3333C84.6 96.4 84.6 98.8 84.4667 100.667C84.2 104 84.2 104 82.0667 101.333C80.0667 98.6666 80.0667 98.6666 80.6 101.333C81 102.8 80.4667 104.8 79.5333 105.733C78.0667 107.067 77.8 103.067 77.8 84.2666C77.6667 71.4666 78.0667 60.8 78.4667 60.4C78.8667 60 79.4 51.0666 79.6667 40.5333C79.9333 30 80.4667 20.4 81 19.0666C81.5333 17.6 81 16.6666 79 16C75.2667 14.8 75.1333 15.0666 74.2 22.8C73.8 26.4 72.8667 29.8666 72.0667 30.6666C71 31.6 70.8667 31.3333 71.6667 30C72.4667 28.4 72.3333 28.2666 71 29.6C67.1333 33.2 63.2667 80.6666 66.7333 80.6666C67.2667 80.6666 67.6667 73.8666 67.6667 65.6C67.8 52 68.4667 45.3333 70.2 43.7333C71.2667 42.6666 72.2 54 72.8667 75.7333C73.4 96.1333 73.4 96.9333 70.8667 96.2666C69.1333 95.7333 68.3333 96.2666 68.2 97.7333C68.0667 100.133 68.2 100.4 65.4 92.8C64.6 90.4 63.8 90 62.7333 91.0666C61.6667 92.1333 61.6667 94.6666 63 100.533C63.9333 105.067 65 108.8 65.5333 108.8C69.4 109.6 73.6667 109.733 73.6667 109.2C73.6667 108.8 72.7333 107.6 71.6667 106.533C70.4667 105.2 69.6667 105.067 69.6667 106C69.6667 108.533 66.7333 106.8 65.5333 103.6C64.6 101.067 64.8667 100.667 67.6667 100.4C69.5333 100.4 71.6667 100.267 72.6 100.133C73.4 100 74.3333 101.733 74.6 104C75.2667 109.2 76.7333 110.533 80.3333 109.333C83.8 108.267 89.6667 96.4 87.2667 95.6C86.2 95.3333 86.3333 93.8666 87.8 91.0666C89 88.8 90.6 81.0666 91.4 73.8666L92.7333 60.6666H117.8C131.533 60.6666 143.667 61.0666 144.867 61.4666C146.467 62.1333 147 64.2666 147 71.2C147 83.3333 149.4 104.267 151 107.467C152.733 110.667 154.867 110.667 158.733 107.467C161.8 104.8 162.6 101.2 160.333 100.4C159.533 100.133 158.733 97.3333 158.467 94C158.067 90.6666 157.267 84.4 156.467 80C154.867 71.0666 154.333 7.99997 155.8 4.26663C156.467 2.26663 157 2.1333 157.8 3.59997C158.733 5.06664 159.267 4.9333 160.333 3.3333C161 2.26663 161.667 1.7333 161.8 2.26663C162.067 3.86663 162.6 5.86663 163 6.9333C163.267 7.59997 163.533 8.5333 163.667 9.3333C163.8 9.99997 164.333 11.6 164.733 12.6666C165.133 13.7333 165.8 15.6 166.2 16.6666C166.6 17.7333 166.6 15.0666 166.067 10.6666C165.667 6.26663 165.133 2.26663 164.733 1.59997C163.933 0.266632 151.267 0.399963 150.467 1.7333ZM78.4667 21.6C78.2 23.7333 77.5333 33.6 77 43.7333C75.9333 63.2 74.6 68.4 73.9333 55.0666C73.4 45.2 76.2 18 77.8 18C78.3333 18 78.7333 19.6 78.4667 21.6ZM71.2667 38C70.4667 43.4666 69.6667 43.0666 69.6667 37.2C69.6667 34.6666 70.2 32.8 70.7333 33.2C71.4 33.6 71.6667 35.7333 71.2667 38ZM149.4 53.3333C149.8 59.3333 149.133 60.1333 145.133 58.5333C142.2 57.3333 142.333 49.2 145.267 47.4666C148.333 45.7333 148.733 46.2666 149.4 53.3333ZM101.667 50C101.667 50.6666 100.733 51.3333 99.6667 51.3333C98.6 51.3333 97.6667 50.6666 97.6667 50C97.6667 49.2 98.6 48.6666 99.6667 48.6666C100.733 48.6666 101.667 49.2 101.667 50ZM107.4 49.6C106.467 49.8666 104.867 49.8666 104.067 49.6C103.133 49.2 103.8 48.9333 105.667 48.9333C107.533 48.9333 108.2 49.2 107.4 49.6ZM112.333 49.2C112.333 49.6 111.8 50.2666 111 50.6666C110.333 51.0666 109.667 50.8 109.667 50.1333C109.667 49.3333 110.333 48.6666 111 48.6666C111.8 48.6666 112.333 48.9333 112.333 49.2ZM153.8 75.6C154.067 94.5333 154.333 99.3333 155.533 102.933C156.067 104.533 155.933 106.133 155.267 106.533C152.467 108.267 151 103.2 150.467 90.5333C150.2 83.3333 149.533 74.1333 149 70.2666C148.333 66.1333 148.467 63.3333 149.267 63.3333C149.933 63.3333 150.333 65.6 150.067 68.2666C149.667 73.3333 149.667 73.3333 151 69.3333C151.667 67.0666 151.933 64.2666 151.533 62.9333C151.133 61.7333 151.4 60.6666 152.2 60.6666C153.133 60.6666 153.8 66 153.8 75.6ZM88.7333 72.9333C88.3333 79.0666 87.4 84.9333 86.7333 86C85.9333 87.3333 85.6667 86.4 85.9333 83.0666C86.0667 80.4 85.6667 77.6 85.1333 77.0666C84.4667 76.5333 84.2 76.6666 84.7333 77.3333C85.1333 78.1333 84.8667 79.6 84.0667 80.6666C83.1333 82.1333 83 81.4666 83.5333 78.1333C83.9333 75.7333 84.3333 71.0666 84.3333 67.8666C84.3333 62.9333 84.7333 62 87 62C89.4 62 89.5333 62.6666 88.7333 72.9333Z" fill="#9A69AB"/>
<path d="M169.8 2.5333C168.733 3.86663 168.6 5.99997 169.533 10.2666C171.267 17.6 173.533 46.6666 174.333 68.1333C174.6 76.8 174.867 84.9333 174.867 85.8666C175 87.3333 175.4 87.4666 176.467 86.4C181.667 81.2 178.067 19.8666 171.667 4.26663C170.2 0.933304 173 1.46664 174.867 4.9333L176.467 7.99997L175.8 4.9333C175.267 1.99997 176.867 0.933304 178.333 3.3333C178.733 3.99997 179.8 4.66663 180.467 4.66663C181.267 4.66663 181.4 3.99997 181 3.3333C180.6 2.5333 180.733 1.99997 181.4 1.99997C182.067 1.99997 184.2 5.06664 186.2 8.79996C189.8 15.7333 190.733 22 188.2 22C187.533 22 187.267 22.6666 187.667 23.3333C188.867 25.3333 189.4 34.4 189.8 57.3333C190.067 68.2666 190.467 73.8666 190.6 69.6C190.867 65.4666 191.667 62 192.333 62C194.733 62 195 56.4 193 33.6C191 9.73331 189.267 3.19997 185 1.46664C181 -3.05176e-05 171.4 0.666634 169.8 2.5333Z" fill="#9A69AB"/>
<path d="M180.333 6.66669C180.333 7.33336 181 8.93336 181.667 10C182.333 11.0667 183 11.3334 183 10.6667C183 9.86669 182.333 8.40002 181.667 7.33336C181 6.26669 180.333 5.86669 180.333 6.66669Z" fill="#9A69AB"/>
<path d="M55.4 8.66667C53.6667 9.33334 52.3334 10.1333 52.3334 10.5333C52.3334 11.4667 57.6667 9.73334 58.4667 8.53334C59.2667 7.20001 59.2667 7.20001 55.4 8.66667Z" fill="#9A69AB"/>
<path d="M38.0666 11.6C35.4 12.9333 29.9333 24.1333 31.4 25.4666C31.6666 25.8666 33 23.7333 34.2 20.6666C35.4 17.7333 36.6 15.3333 37 15.3333C37.6666 15.3333 36.7333 18.8 34.7333 22.9333C33.9333 24.5333 33.6666 27.3333 33.9333 29.2C34.3333 31.3333 34.0666 32.2666 33.2666 31.7333C32.4666 31.2 32.2 32 32.6 33.7333C33.1333 35.3333 32.8666 37.0666 32.2 37.4666C31.5333 37.8666 31.2666 38.8 31.6666 39.4666C32.2 40.1333 31.8 40.6666 31.1333 40.6666C30.3333 40.6666 29.6666 41.3333 29.6666 42.1333C29.6666 42.8 30.3333 43.0666 31 42.6666C31.8 42.2666 32.3333 43.0666 32.3333 44.6666C32.3333 46.2666 31.8 47.0666 31 46.6666C30.3333 46.2666 29.6666 46.8 29.6666 47.8666C29.6666 50.9333 33.5333 48.9333 34.2 45.4666C34.6 44 35.8 37.3333 37 30.8C38.0666 24.2666 39.9333 16.9333 41 14.5333C43 9.73329 42.6 9.33329 38.0666 11.6Z" fill="#9A69AB"/>
<path d="M193.533 10.9333C193.4 11.6 193.533 12.5333 193.667 13.3333C195 19.2 197.667 49.0667 197.667 59.0667C197.667 67.0667 198.2 71.2 199 70.6667C201.667 69.0667 200.2 36.4 196.867 20.8C196.2 17.7333 196.333 16.5333 197.4 17.2C198.067 17.6 199 17.2 199.267 16.4C199.667 15.4667 200.867 17.3333 202.067 20.6667L204.333 26.6667L203.667 21.3333C203.133 18 201.667 14.9333 199.533 12.9333C196.2 9.99999 193.8 9.19999 193.533 10.9333Z" fill="#9A69AB"/>
<path d="M76.3334 12.8C76.3334 13.4666 77 13.7333 77.6667 13.3333C78.4667 12.9333 79 12.2666 79 11.8666C79 11.6 78.4667 11.3333 77.6667 11.3333C77 11.3333 76.3334 12 76.3334 12.8Z" fill="#9A69AB"/>
<path d="M26.2 16.6666C20.4667 18.9333 14.7333 30.4 11.6667 45.6C10.8667 49.4666 10.2 50 6.73335 50C3.13335 50 2.86668 49.7333 4.46668 47.7333C6.20001 45.7333 6.06668 45.7333 3.26668 47.2C1.00001 48.4 0.333345 49.7333 0.600012 52.4C0.866679 55.3333 1.80001 56.1333 5.13335 56.4C9.13334 56.8 9.26668 57.0666 10.0667 64.6666C11.9333 82.2666 15.4 89.3333 22.6 90.8L26.8667 91.6L24.8667 85.2C23.8 81.7333 23.2667 76.9333 23.6667 74.8C24.0667 72.5333 24.6 62.5333 24.8667 52.6666C25.2667 37.6 25.8 33.0666 28.7333 24.9333C32.0667 15.2 31.9333 14.4 26.2 16.6666ZM23 24.9333C21.6667 28.1333 20.2 33.0666 19.8 36L19 41.3333L20.7333 35.3333C22.4667 29.7333 26.6 20.6666 27.4 20.6666C27.6667 20.6666 26.3333 26.2666 24.6 32.9333C21 46.9333 20.0667 74.4 22.7333 84C24.0667 88.9333 24.0667 89.0666 22.2 86.6666C21.1333 85.2 19.8 82.2666 19.4 80.1333C19 78 17.5333 76 16.3333 75.7333C11.5333 74.4 10.6 48.6666 15.2667 48.6666C16.2 48.6666 16.4667 51.0666 15.9333 54.9333C15.5333 58.4 15.6667 60.2666 16.3333 59.2C16.8667 58.2666 17.6667 54.8 18.0667 51.8666C18.6 46.8 18.4667 46.4 15.9333 47.0666C13.6667 47.6 13.4 47.3333 14.2 45.2C14.7333 43.8666 16.2 39.6 17.2667 36C19.2667 29.3333 23.9333 19.3333 25 19.3333C25.2667 19.3333 24.3333 21.8666 23 24.9333ZM10.0667 53.4666C9.53335 55.2 2.60001 54.9333 2.06668 53.0666C1.66668 52 3.00001 51.6 5.93335 51.8666C8.33334 52 10.2 52.8 10.0667 53.4666ZM18.2 83.3333C18.8667 85.6 18.7333 86 17.9333 84.6666C17.2667 83.6 16.2 81.2 15.8 79.3333C15.1333 77.0666 15.2667 76.6666 16.0667 78C16.7333 79.0666 17.8 81.4666 18.2 83.3333Z" fill="#9A69AB"/>
<path d="M15.1333 64.6667C15.1333 65.7333 15.6666 67.6 16.3333 68.6667C17.9333 71.0667 17.9333 68.9333 16.3333 65.3333C15.5333 63.6 15.1333 63.3333 15.1333 64.6667Z" fill="#9A69AB"/>
<path d="M15 72.8C15 73.4666 15.6667 73.7333 16.3333 73.3333C17.1333 72.9333 17.6667 72.2666 17.6667 71.8666C17.6667 71.6 17.1333 71.3333 16.3333 71.3333C15.6667 71.3333 15 72 15 72.8Z" fill="#9A69AB"/>
<path d="M84.4667 18.8C84.4667 20.2667 84.8667 20.6667 85.2667 19.6C85.6667 18.6667 85.5334 17.4667 85.1334 17.0667C84.7334 16.5333 84.3334 17.3333 84.4667 18.8Z" fill="#9A69AB"/>
<path d="M204.867 17.7333C206.733 20.8 209.933 45.8667 209.933 58.6667C210.067 69.4667 210.333 72.1333 211.133 68.6667C213 60.9333 212.6 40.5333 210.333 32.6667C207.933 23.8667 207.8 21.4667 209.933 22.8C210.867 23.3333 211 23.2 210.467 22.1333C209.933 21.3333 208.867 20.9333 208.2 21.3333C207.533 21.8667 207 21.4667 207 20.8C207 17.7333 211 19.6 213.133 23.4667C214.2 25.7333 214.6 27.2 213.8 26.8C213 26.2666 212.333 26.8 212.333 27.8667C212.333 29.0667 213.133 29.6 214.2 29.2C216.067 28.5333 218.867 37.0667 219.133 44.2667C219.133 47.4667 219.267 47.6 220.2 45.3333C221.133 43.2 221.667 44.1333 222.867 49.7333C224.6 58.2667 224.733 59.3333 223.133 59.3333C222.333 59.3333 221.533 57.3333 221.267 54.9333C221 52.6667 220.867 54.6667 221 59.6C221.267 64.9333 220.733 68.6667 220.067 68.6667C219.267 68.6667 219 69.8667 219.4 71.3333C220.333 75.2 216.333 86 213.8 86C213.267 86 212.067 84.6667 211.267 82.9333C209.8 80 209.8 80 209.8 83.6C209.667 85.4667 209.267 88.1333 208.733 89.4667C208.2 90.9333 208.333 91.4667 209.267 90.9333C210.067 90.4 211 90.6667 211.267 91.6C212.2 94.1333 216.067 91.7333 219 87.0667C220.467 84.6667 221.933 80 222.333 76.6667C222.867 73.3333 223.533 69.7333 224.067 68.6667C224.733 66.8 225 65.4667 225.533 60.4C225.667 58.8 226.867 58.2667 230.733 58.4C235.133 58.6667 235.667 58.2667 236.067 55.2C236.333 53.0667 235.4 50.9333 233.533 49.2C230.6 46.6667 230.6 46.6667 232.2 49.6C234.2 53.6 234.067 55.3333 231.533 54.4C230.333 54 228.867 54.4 228.333 55.4667C227.4 56.9333 227 56.6667 226.2 54.6667C225.533 53.0667 225.8 52 226.867 51.6C228.067 51.2 227.933 50.4 226.333 48.6667C225.267 47.4667 223.133 42.5333 221.8 37.8667C218.2 25.7333 216.867 22.5333 213.667 19.3333C211.133 16.8 203.4 15.3333 204.867 17.7333Z" fill="#9A69AB"/>
<path d="M165 28.9333C165.133 32.8 165.4 44.4 165.667 54.6666C165.933 65.2 166.333 69.7333 166.6 64.9333C167 58.8 167.667 56.6666 169.133 56.6666C171.133 56.6666 171.133 56.9333 168.867 30.2666C168.333 24.9333 167.533 22 166.467 22C165.267 22 164.867 24.1333 165 28.9333Z" fill="#9A69AB"/>
<path d="M185 39.3333C185.533 54.6667 185.533 55.6 183.8 51.3333C182.067 46.9333 181.933 48 181.933 66C181.933 77.6 182.333 84 183 82C183.533 80.1333 184.067 76.9333 184.2 74.9333C184.333 72.8 184.867 71.4667 185.667 72C187.4 73.0667 187.4 35.6 185.667 28C184.867 24.2667 184.6 27.7333 185 39.3333Z" fill="#9A69AB"/>
<path d="M199 24.2667C199 24.9333 199.4 26 199.933 26.5333C200.467 26.9333 201 30.2667 201.133 33.7333C202.6 61.0667 204.067 70.1333 204.6 53.8667C204.867 44.2667 204.733 42.4 203.933 38.6667C203.667 37.2 203.933 34.6667 204.467 32.9333C205.133 31.0667 205.133 30 204.2 30C203.4 30 203.133 29.6 203.4 28.9333C203.8 28.4 202.867 26.8 201.533 25.4667C200.067 24 199 23.4667 199 24.2667Z" fill="#9A69AB"/>
<path d="M160.333 26.6667C160.2 28.1334 160.067 29.7333 160.2 30.4C161.533 38.5333 161.667 47.8667 160.6 48.5333C159.267 49.3333 158.733 59.6 158.867 76.5333C159 82.6667 159.267 83.4667 161 82C162.6 80.6667 163 76.4 162.867 58.8C162.733 39.6 161.267 19.7333 160.333 26.6667ZM161.267 56.9333C160.867 58 160.467 57.6 160.467 56.1333C160.333 54.6667 160.733 53.8667 161.133 54.4C161.533 54.8 161.667 56 161.267 56.9333Z" fill="#9A69AB"/>
<path d="M28.3333 34.9333C27.5333 39.2 26.4666 43.8667 26.2 45.3333C25.6666 47.4667 25.8 47.6 26.8666 46C28.2 43.7333 31.2666 28.5333 30.4666 27.7333C30.2 27.3333 29.2666 30.6667 28.3333 34.9333Z" fill="#9A69AB"/>
<path d="M47.2667 33.3334C47.2667 35.4667 47.5334 36.2667 47.9334 34.9334C48.2001 33.7334 48.2001 31.8667 47.9334 30.9334C47.5334 30.1334 47.2667 31.0667 47.2667 33.3334Z" fill="#9A69AB"/>
<path d="M156.333 34.1334C156.333 35.8667 157 38.2667 157.667 39.3334C158.6 40.8 158.867 40.1334 158.6 36.9334C158.067 31.7334 156.333 29.6 156.333 34.1334Z" fill="#9A69AB"/>
<path d="M42.6001 34.8C42.2001 35.2 42.2001 36.5333 42.6001 37.7333C43.1334 38.9333 42.8667 39.4666 42.0667 38.9333C41.2667 38.4 40.7334 39.3333 40.7334 41.3333C40.7334 43.2 41.1334 44.6666 41.8001 44.6666C42.4667 44.6666 42.8667 44.2666 42.7334 43.6C42.6001 43.0666 43.0001 40.9333 43.6667 38.9333C44.6001 35.2 44.2001 33.2 42.6001 34.8Z" fill="#9A69AB"/>
<path d="M81.9333 38C81.9333 40.5333 82.2 41.6 82.6 40.2667C82.8667 39.0667 82.8667 36.9333 82.6 35.6C82.2 34.4 81.9333 35.4667 81.9333 38Z" fill="#9A69AB"/>
<path d="M85 39.3333C84.4666 42.6667 83.4 44.6667 82.2 44.6667C79.4 44.6667 79.9333 46.9333 83 47.7333C84.6 48.1333 85.6666 49.6 85.8 51.6C85.9333 53.7333 86.3333 53.0667 87.4 49.3333C88.3333 45.7333 88.3333 44 87.2666 43.6C86.4666 43.3333 86.2 41.3333 86.6 38.5333C87 36 87 34 86.6 34C86.2 34 85.5333 36.4 85 39.3333Z" fill="#9A69AB"/>
<path d="M149.933 38C149.933 39.8667 150.2 40.5333 150.6 39.6C150.867 38.8 150.867 37.2 150.6 36.2667C150.2 35.4667 149.933 36.1333 149.933 38Z" fill="#9A69AB"/>
<path d="M215 42.6667C215.667 44.4 215.933 47.2 215.533 48.9334C214.333 54.6667 213.267 70.6667 214.2 69.8667C215.4 68.8 216.333 62.4 217.133 50.5333C217.667 42.8 217.4 40.9334 215.8 40.2667C214.2 39.6 214.067 40 215 42.6667Z" fill="#9A69AB"/>
<path d="M63.8 42.6666C62.6 46.1333 62.8666 46.9333 64.4666 44.2666C65.2666 42.9333 65.6666 41.4666 65.2666 41.2C65 40.8 64.3333 41.4666 63.8 42.6666Z" fill="#9A69AB"/>
<path d="M157.667 44.6667C157.667 45.3333 158.333 46 159.133 46C159.8 46 160.067 45.3333 159.667 44.6667C159.267 43.8667 158.6 43.3333 158.2 43.3333C157.933 43.3333 157.667 43.8667 157.667 44.6667Z" fill="#9A69AB"/>
<path d="M43.8 46.6666C43.4 47.8666 43.1333 51.7333 43.1333 55.0666L43.2666 61.3333L44.4666 53.4666C45.6666 45.4666 45.4 42.6666 43.8 46.6666Z" fill="#9A69AB"/>
<path d="M28.4667 64.2667C28.4667 71.8667 28.7333 78 29.4 78C29.9333 78 30.2 73.0667 29.9333 66.9333C29.4 50.2667 28.7333 49.0667 28.4667 64.2667Z" fill="#9A69AB"/>
<path d="M169.8 60.1333C169.8 61.6 170.2 62 170.6 60.9333C171 60 170.867 58.8 170.467 58.4C170.067 57.8666 169.667 58.6666 169.8 60.1333Z" fill="#9A69AB"/>
<path d="M43 66.8C43 68.4 43.9333 70 45 70.5333C47.5333 71.4667 47.5333 69.8667 45 66.5333C43.1333 64 43.1333 64 43 66.8Z" fill="#9A69AB"/>
<path d="M198.333 80.2666C197.933 84.5333 197.133 89.6 196.867 91.6C196.333 94 196.733 95.3333 197.667 95.3333C199 95.3333 198.867 95.8666 197.667 97.3333C196.467 98.8 196.467 99.3333 197.533 99.3333C198.333 99.3333 199.4 98.4 199.933 97.2C200.467 95.6 201 95.6 201.667 96.8C202.467 97.8666 203.267 97.4666 204.467 95.2C206.467 91.4666 208.333 79.2 206.733 80.1333C206.2 80.5333 205.667 82.1333 205.667 83.8666C205.667 86.5333 202.067 91.3333 200.067 91.3333C199.8 91.3333 199.667 87.0666 199.933 82C200.2 76.8 200.067 72.6666 199.8 72.6666C199.4 72.6666 198.867 76.1333 198.333 80.2666Z" fill="#9A69AB"/>
<path d="M43.2667 76.6666C43.2667 78.5333 43.5334 79.2 43.9334 78.2666C44.2001 77.4666 44.2001 75.8666 43.9334 74.9333C43.5334 74.1333 43.2667 74.8 43.2667 76.6666Z" fill="#9A69AB"/>
<path d="M165.933 78C165.933 79.8666 166.2 80.5333 166.6 79.6C166.867 78.8 166.867 77.2 166.6 76.2666C166.2 75.4666 165.933 76.1333 165.933 78Z" fill="#9A69AB"/>
<path d="M29.8 81.4667C29.8 82.9333 30.2 83.3333 30.6 82.2667C31 81.3333 30.8666 80.1333 30.4666 79.7333C30.0666 79.2 29.6666 80 29.8 81.4667Z" fill="#9A69AB"/>
<path d="M43 83.3333C43 84.8 42.4667 86 41.6667 86C41 86 40.3334 86.6666 40.3334 87.6C40.3334 88.4 41.5334 88 43 86.6666C45.8 84.1333 46.6 80.6666 44.3334 80.6666C43.6667 80.6666 43 81.8666 43 83.3333Z" fill="#9A69AB"/>
<path d="M194.467 83.0666C194.2 83.6 193.533 86.4 193 89.3333C191.8 95.7333 189 101.467 186.733 102.267C184.333 103.2 181.667 102.133 181.667 100.133C181.667 99.2 180.733 98.4 179.667 98.4C177.933 98.4 177.133 101.2 177.267 106.933C177.4 107.867 176.2 108.667 174.867 108.667C172.067 108.667 171.8 108.133 173.533 104.933C174.067 103.733 175 100 175.533 96.6666C176.333 90.8 176.333 90.8 174.6 94.6666C170.867 102.933 169.933 107.067 171.4 108.533C173.533 110.667 177.4 110.267 178.733 107.867C179.667 106.267 181 105.867 183.533 106.533C185.667 107.067 186.733 108 186.2 108.933C185.667 109.733 186.067 110.133 187.133 109.733C190.467 108.667 193.667 101.2 194.467 93.2C194.867 88.8 195.4 84.5333 195.667 83.6C196.333 81.8666 195.533 81.4666 194.467 83.0666Z" fill="#9A69AB"/>
<path d="M62.6 85.3333C62.0667 86.4 62.2 87.4666 62.7334 87.8666C63.2667 88.2666 63.9334 87.3333 63.9334 85.8666C64.2 82.8 63.5334 82.5333 62.6 85.3333Z" fill="#9A69AB"/>
<path d="M45 87.4667C44.4666 88.2667 44.3333 89.0667 44.7333 89.4667C45 89.8667 45.6666 89.2 46.0666 88C47 85.7333 46.2 85.3333 45 87.4667Z" fill="#9A69AB"/>
<path d="M67.9333 86.9333C66.6 88.2667 66.8666 90 68.4666 90C69.1333 90 69.5333 89.4667 69.1333 88.8C68.6 88.1333 69.1333 87.2 69.9333 86.9333C70.8666 86.5333 71 86.1333 70.2 86.1333C69.4 86 68.3333 86.4 67.9333 86.9333Z" fill="#9A69AB"/>
<path d="M164.6 100.933C161.933 103.6 162.733 106.267 166.067 105.733C167.933 105.467 169.133 104.267 169.4 102.267C169.933 99.0667 167.267 98.2667 164.6 100.933Z" fill="#9A69AB"/>
<path d="M163.8 108.533C162.2 109.2 161.667 109.867 162.6 110.4C164.333 111.467 168.333 110.133 168.333 108.533C168.333 107.2 167.267 107.2 163.8 108.533Z" fill="#9A69AB"/>
</svg>
