<svg width="388" height="387" viewBox="0 0 388 387" fill="none" xmlns="http://www.w3.org/2000/svg">
<rect width="388" height="387" rx="50" fill="#9A69AB"/>
<path d="M163.836 142.092C153.919 148.368 136.909 170.071 131.331 183.58C120.656 209.641 120.725 219.316 131.744 230.821C146.826 246.423 158.878 244.505 178.643 223.325C183.67 217.921 187.389 214.871 186.838 216.614C185.805 220.013 190.694 231.518 193.105 231.518C193.931 231.518 198.89 225.853 204.192 218.88C211.355 209.467 213.627 207.375 212.87 210.6C207.636 234.656 216.038 240.147 230.087 221.843C235.458 214.784 234.356 213.825 228.296 220.275C220.032 229.078 221.272 215.394 230.706 193.691C236.422 180.53 236.491 179.92 232.222 178.525C230.362 178.002 227.952 177.043 226.781 176.433C225.266 175.736 222.856 179.048 218.173 188.2C202.195 220.013 192.967 224.371 203.917 194.998C211.148 175.736 206.878 169.548 193.862 180.268C188.491 184.713 186.425 189.594 191.383 186.282C201.162 179.658 192.416 203.54 181.26 213.999C138.63 253.744 120.381 221.582 157.156 171.552C173.891 148.804 193.656 142.877 188.628 162.052C186.425 170.594 188.628 175.039 191.865 168.502C202.471 147.409 183.601 129.716 163.836 142.092Z" fill="white"/>
<path d="M37.0508 154.382C36.8442 157.171 35.88 163.011 34.1583 172.511L32.3678 182.36L24.448 179.222C20.1093 177.479 16.5282 176.433 16.5282 176.956C16.5282 178.089 8.19525 170.594 3.78772 165.538C1.58396 163.011 0 162.052 0 163.359C0 166.933 5.50941 175.736 7.64431 175.736C8.74619 175.736 9.64147 176.433 9.64147 177.305C9.64147 178.612 18.0433 184.626 21.0046 185.498C21.5556 185.672 22.5197 185.934 23.0707 186.195C24.9301 186.98 26.8584 187.415 29.131 187.677C31.0593 187.938 31.197 188.984 30.0263 195.347C28.3046 205.022 27.6848 208.682 26.7895 214.784C26.3763 217.573 25.481 221.233 24.7235 222.889C21.831 229.862 23.0018 231.518 30.9904 231.518C36.0178 231.518 38.6347 230.821 38.7725 229.339C38.8413 228.119 39.1168 225.591 39.4611 223.674C39.7366 221.756 40.1498 218.444 40.3564 216.265C40.6319 214.173 41.2517 211.907 41.7338 211.21C42.2847 210.6 42.6979 207.898 42.6979 205.37C42.6979 193.081 44.6951 190.466 53.8545 191.163C58.7441 191.512 62.8761 190.989 63.7714 189.856C66.2506 186.718 67.7657 187.677 66.6639 191.861C66.1129 194.04 65.4242 197.7 65.1488 200.141C64.0469 208.595 63.8403 209.728 62.8761 213.476C62.3252 215.568 61.6365 218.967 61.2922 221.059C60.9478 223.151 60.328 226.289 59.846 228.206C59.1573 231.17 59.7771 231.518 66.044 231.518C69.8318 231.518 73.0685 230.908 73.2063 230.211C73.2751 229.514 73.5506 227.335 73.7572 225.417C74.0327 223.499 75.0657 217.573 76.1676 212.343C77.2695 207.026 78.9912 198.049 79.9553 192.296C80.9194 186.544 82.6411 180.443 83.8119 178.699C85.8091 175.736 85.7402 175.562 81.8836 176.608C75.8232 178.176 60.879 180.878 52.7526 181.924L45.5904 182.796L47.5187 175.736C49.5158 168.502 49.5847 168.24 49.5847 165.277C49.5847 164.318 53.6479 163.534 59.0884 163.534H68.5233L69.1431 158.304L69.7629 153.074H53.5101C44.4885 153.074 37.1196 153.685 37.0508 154.382Z" fill="white"/>
<path d="M72.0355 160.483C67.5591 168.153 76.1676 177.741 81.4704 171.029C84.0874 167.717 84.294 166.584 82.9166 162.749C81.1949 157.868 74.4459 156.474 72.0355 160.483Z" fill="white"/>
<path d="M97.5854 163.098C97.5165 163.795 97.3099 165.974 97.1033 167.892C96.4835 175.3 94.7618 179.222 92.2137 179.222C90.7675 179.222 88.9769 180.704 88.2194 182.622C85.8779 188.026 86.4977 190.117 90.0099 189.333C93.6599 188.461 93.7288 189.42 90.9052 204.499C86.7043 227.509 87.9439 232.477 97.7231 231.083C106.469 229.775 117.764 216.091 113.976 211.297C113.149 210.251 104.679 216.265 104.679 218.009C104.679 218.706 103.715 219.316 102.544 219.316C101.098 219.316 100.616 218.27 101.029 216.265C103.233 206.939 104.885 197.439 105.161 193.604C105.367 189.507 105.918 189.072 112.116 188.984C118.59 188.81 118.797 188.636 119.279 183.145L119.83 177.566L113.7 178.612C107.158 179.745 106.194 176.433 110.188 167.02C110.877 165.364 111.083 163.534 110.601 162.924C109.362 161.355 97.8609 161.529 97.5854 163.098Z" fill="white"/>
<path d="M273.955 170.245C270.581 172.947 265.485 178.612 262.73 182.883C258.116 189.856 257.634 190.205 257.771 186.195C258.047 178.351 257.634 177.479 253.364 177.479C246.753 177.479 239.453 182.796 243.447 184.626C247.579 186.544 247.441 187.59 241.037 204.935C234.425 222.715 234.288 225.417 239.59 228.816C246.546 233.436 253.984 231.954 249.852 226.812C247.441 223.674 247.992 220.885 253.915 205.545C262.11 184.365 275.402 172.511 288.073 175.126C294.409 176.433 295.442 172.598 290.001 168.066C285.112 164.057 280.98 164.58 273.955 170.245Z" fill="white"/>
<path d="M298.886 175.736C296.613 179.832 296.2 181.75 297.37 183.232C299.643 186.108 299.23 194.301 296.269 201.535C293.307 208.944 281.738 225.33 282.977 220.362C283.39 218.619 284.148 210.164 284.63 201.71C285.732 183.057 284.768 182.011 273.473 188.548C265.622 193.081 263.35 196.044 269.135 194.214C274.024 192.645 274.093 207.026 269.272 227.335C268.446 230.647 268.928 230.995 274.644 231.082C286.834 231.344 307.15 199.443 307.632 179.397C307.907 168.937 303.706 167.194 298.886 175.736Z" fill="white"/>
<path d="M320.992 178.438C314.725 185.672 309.56 196.044 307.081 206.678C301.02 232.303 333.732 240.06 343.787 215.394C347.299 206.939 344.063 206.416 338.14 214.348C327.948 227.945 316.791 228.903 316.791 216.091C316.791 207.549 319.89 204.063 323.471 208.595C328.361 214.784 338.002 208.77 345.371 194.998C349.297 187.59 349.09 186.805 340.757 178.787C332.148 170.419 328.085 170.419 320.992 178.438ZM338.14 189.594C333.595 200.751 323.609 208.159 322.507 201.187C321.749 196.306 335.523 179.92 338.071 182.622C339.862 184.539 339.862 185.411 338.14 189.594Z" fill="white"/>
<path d="M363.552 178.176C349.365 191.338 349.985 203.627 364.792 203.627C376.499 203.627 371.885 221.931 357.354 233.349C347.713 240.844 346.542 233.784 354.944 218.706C361.073 207.724 359.696 206.155 352.464 216.004C341.721 230.647 339.793 238.404 345.371 244.592C350.467 250.345 353.429 249.996 363.001 242.762C388.482 223.412 393.165 196.654 371.128 196.654C366.651 196.654 366.238 196.306 367.822 193.952C371.747 187.938 381.113 183.929 379.667 188.81C379.185 190.205 379.392 191.425 380.012 191.425C380.7 191.425 381.595 190.205 382.078 188.636C386.141 175.126 374.158 168.327 363.552 178.176Z" fill="white"/>
<path d="M380.149 235.615C380.149 241.106 384.281 243.285 386.692 239.101C389.102 234.83 388.207 232.477 383.799 231.867C380.7 231.344 380.149 231.954 380.149 235.615Z" fill="white"/>
</svg>
