<svg width="250" height="50" viewBox="0 0 377 86" fill="none" xmlns="http://www.w3.org/2000/svg">
<path d="M159.267 3.60002C149.667 8.40002 133.2 25 127.8 35.3334C117.467 55.2667 117.533 62.6667 128.2 71.4667C142.8 83.4 154.467 81.9334 173.6 65.7334C178.467 61.6 182.067 59.2667 181.533 60.6C180.533 63.2 185.267 72 187.6 72C188.4 72 193.2 67.6667 198.333 62.3334C205.267 55.1334 207.467 53.5334 206.733 56C201.667 74.4 209.8 78.6 223.4 64.6C228.6 59.2 227.533 58.4667 221.667 63.4C213.667 70.1334 214.867 59.6667 224 43.0667C229.533 33 229.6 32.5334 225.467 31.4667C223.667 31.0667 221.333 30.3334 220.2 29.8667C218.733 29.3334 216.4 31.8667 211.867 38.8667C196.4 63.2 187.467 66.5334 198.067 44.0667C205.067 29.3334 200.933 24.6 188.333 32.8C183.133 36.2 181.133 39.9334 185.933 37.4C195.4 32.3334 186.933 50.6 176.133 58.6C134.867 89 117.2 64.4 152.8 26.1334C169 8.73335 188.133 4.20002 183.267 18.8667C181.133 25.4 183.267 28.8 186.4 23.8C196.667 7.66669 178.4 -5.86665 159.267 3.60002Z" fill="white"/>
<path d="M36.5333 13C36.3333 15.1333 35.4 19.6 33.7333 26.8667L32 34.4L24.3333 32C20.1333 30.6667 16.6666 29.8667 16.6666 30.2667C16.6666 31.1333 8.59996 25.4 4.33329 21.5333C2.19996 19.6 0.666626 18.8667 0.666626 19.8667C0.666626 22.6 5.99996 29.3333 8.06663 29.3333C9.13329 29.3333 9.99996 29.8667 9.99996 30.5333C9.99996 31.5333 18.1333 36.1333 21 36.8C21.5333 36.9333 22.4666 37.1333 23 37.3333C24.8 37.9333 26.6666 38.2667 28.8666 38.4667C30.7333 38.6667 30.8666 39.4667 29.7333 44.3333C28.0666 51.7333 27.4666 54.5333 26.6 59.2C26.2 61.3333 25.3333 64.1333 24.6 65.4C21.8 70.7333 22.9333 72 30.6666 72C35.5333 72 38.0666 71.4667 38.2 70.3333C38.2666 69.4 38.5333 67.4667 38.8666 66C39.1333 64.5333 39.5333 62 39.7333 60.3333C40 58.7333 40.6 57 41.0666 56.4667C41.6 56 42 53.9333 42 52C42 42.6 43.9333 40.6 52.8 41.1333C57.5333 41.4 61.5333 41 62.4 40.1333C64.8 37.7333 66.2666 38.4667 65.2 41.6667C64.6666 43.3333 64 46.1333 63.7333 48C62.6666 54.4667 62.4666 55.3333 61.5333 58.2C61 59.8 60.3333 62.4 60 64C59.6666 65.6 59.0666 68 58.6 69.4667C57.9333 71.7333 58.5333 72 64.6 72C68.2666 72 71.4 71.5333 71.5333 71C71.6 70.4667 71.8666 68.8 72.0666 67.3333C72.3333 65.8667 73.3333 61.3333 74.4 57.3333C75.4666 53.2667 77.1333 46.4 78.0666 42C79 37.6 80.6666 32.9333 81.8 31.6C83.7333 29.3333 83.6666 29.2 79.9333 30C74.0666 31.2 59.6 33.2667 51.7333 34.0667L44.8 34.7333L46.6666 29.3333C48.6 23.8 48.6666 23.6 48.6666 21.3333C48.6666 20.6 52.6 20 57.8666 20H67L67.6 16L68.2 12H52.4666C43.7333 12 36.6 12.4667 36.5333 13Z" fill="white"/>
<path d="M95.1333 19.6667C95.0666 20.2001 94.8666 21.8667 94.6666 23.3334C94.0666 29 92.3999 32 89.9333 32C88.5333 32 86.7999 33.1334 86.0666 34.6001C83.7999 38.7334 84.3999 40.3334 87.7999 39.7334C91.3333 39.0667 91.3999 39.8 88.6666 51.3334C84.5999 68.9334 85.7999 72.7334 95.2666 71.6667C103.733 70.6667 114.667 60.2001 111 56.5334C110.2 55.7334 102 60.3334 102 61.6667C102 62.2001 101.067 62.6667 99.9333 62.6667C98.5333 62.6667 98.0666 61.8667 98.4666 60.3334C100.6 53.2001 102.2 45.9334 102.467 43C102.667 39.8667 103.2 39.5334 109.2 39.4667C115.467 39.3334 115.667 39.2001 116.133 35L116.667 30.7334L110.733 31.5334C104.4 32.4001 103.467 29.8667 107.333 22.6667C108 21.4001 108.2 20 107.733 19.5334C106.533 18.3334 95.3999 18.4667 95.1333 19.6667Z" fill="white"/>
<path d="M265.867 25.1334C262.6 27.2 257.667 31.5334 255 34.8C250.533 40.1334 250.067 40.4 250.2 37.3334C250.467 31.3334 250.067 30.6667 245.933 30.6667C239.533 30.6667 232.467 34.7334 236.333 36.1334C240.333 37.6 240.2 38.4 234 51.6667C227.6 65.2667 227.467 67.3334 232.6 69.9334C239.333 73.4667 246.533 72.3334 242.533 68.4C240.2 66 240.733 63.8667 246.467 52.1334C254.4 35.9334 267.267 26.8667 279.533 28.8667C285.667 29.8667 286.667 26.9334 281.4 23.4667C276.667 20.4 272.667 20.8 265.867 25.1334Z" fill="white"/>
<path d="M290 29.3333C287.8 32.4666 287.4 33.9333 288.533 35.0666C290.733 37.2666 290.333 43.5333 287.467 49.0666C284.6 54.7333 273.4 67.2666 274.6 63.4666C275 62.1333 275.733 55.6666 276.2 49.2C277.267 34.9333 276.333 34.1333 265.4 39.1333C257.8 42.6 255.6 44.8666 261.2 43.4666C265.933 42.2666 266 53.2666 261.333 68.8C260.533 71.3333 261 71.6 266.533 71.6666C278.333 71.8666 298 47.4666 298.467 32.1333C298.733 24.1333 294.667 22.8 290 29.3333Z" fill="white"/>
<path d="M311.4 31.4001C305.333 36.9334 300.333 44.8667 297.933 53C292.067 72.6001 323.733 78.5334 333.467 59.6667C336.867 53.2001 333.733 52.8001 328 58.8667C318.133 69.2667 307.333 70.0001 307.333 60.2001C307.333 53.6667 310.333 51 313.8 54.4667C318.533 59.2001 327.867 54.6 335 44.0667C338.8 38.4 338.6 37.8 330.533 31.6667C322.2 25.2667 318.267 25.2667 311.4 31.4001ZM328 39.9334C323.6 48.4667 313.933 54.1334 312.867 48.8001C312.133 45.0667 325.467 32.5334 327.933 34.6001C329.667 36.0667 329.667 36.7334 328 39.9334Z" fill="white"/>
<path d="M352.6 31.2C338.867 41.2667 339.467 50.6667 353.8 50.6667C365.133 50.6667 360.667 64.6667 346.6 73.4C337.267 79.1333 336.133 73.7333 344.267 62.2C350.2 53.8 348.867 52.6 341.867 60.1333C331.467 71.3333 329.6 77.2667 335 82C339.933 86.4 342.8 86.1333 352.067 80.6C376.733 65.8 381.267 45.3333 359.933 45.3333C355.6 45.3333 355.2 45.0667 356.733 43.2667C360.533 38.6667 369.6 35.6 368.2 39.3333C367.733 40.4 367.933 41.3333 368.533 41.3333C369.2 41.3333 370.067 40.4 370.533 39.2C374.467 28.8667 362.867 23.6667 352.6 31.2Z" fill="white"/>
<path d="M368.667 75.1333C368.667 79.3333 372.667 81 375 77.8C377.333 74.5333 376.467 72.7333 372.2 72.2666C369.2 71.8666 368.667 72.3333 368.667 75.1333Z" fill="white"/>
</svg>

