<svg width="1440" height="401" viewBox="0 0 1440 401" fill="none" xmlns="http://www.w3.org/2000/svg">
<g clip-path="url(#clip0_36_395)">
<mask id="mask0_36_395" style="mask-type:luminance" maskUnits="userSpaceOnUse" x="-11" y="-8" width="5458" height="646">
<path d="M5447 -8H-11V638H5447V-8Z" fill="white"/>
</mask>
<g mask="url(#mask0_36_395)">
<path d="M2344 346.684C2232.6 317.65 2153.16 322.627 1925.71 322.627C1698.27 322.627 1596.96 357.973 1292.83 368.08C988.682 378.186 864.975 346.463 476.083 318.256C251.222 306.258 48.9151 332.248 -29 338.583V274L2326.22 278.39L2344 346.684Z" fill="#E64EB3"/>
<path d="M-58 8.30871C-57.7999 8.37764 -57.5999 8.44652 -57.4001 8.51533C-4.09727 26.8759 37.7613 41.2943 93.426 51.1434C149.753 61.1097 220.186 66.3926 330.929 66.3926C441.723 66.3926 521.799 55.0126 611.155 42.0157L615.763 41.3453C703.898 28.5214 801.681 14.2938 947.142 7.90564C1145.21 -0.792704 1264.58 14.5935 1435.34 36.6049C1519.8 47.4909 1616.83 59.9974 1742.16 72.0123L1742.18 72.0135L1742.19 72.0144C1926.35 85.0027 2095 63.415 2189.08 51.3719C2206.36 49.1606 2221.12 47.2711 2233 45.9765V126.961L-58 121.317V8.30871Z" fill="#9A69AB" stroke="white"/>
<path d="M-28.123 48.92C-27.9021 48.9941 -27.6813 49.0681 -27.4607 49.1421C27.3113 67.5024 70.3203 81.9195 127.515 91.7678C185.391 101.733 257.762 107.016 371.557 107.016C485.401 107.016 567.682 95.6369 659.501 82.64L664.237 81.9694C754.802 69.1454 855.281 54.9175 1004.75 48.5292C1208.29 39.8305 1330.96 55.2183 1506.45 77.2309C1593.23 88.1166 1692.93 100.622 1821.71 112.636L1821.72 112.637L1821.73 112.638C2010.97 125.626 2184.26 104.039 2280.94 91.9961C2298.7 89.7826 2313.88 87.8916 2326.1 86.5968V167.585L-28.123 161.94V48.92Z" fill="#E64EB3" stroke="white"/>
<path d="M5447 156H-29V285H5447V156Z" fill="#E64EB3"/>
</g>
<path d="M661.266 125.767C643.087 134.857 611.907 166.293 601.681 185.861C582.115 223.608 582.241 237.622 602.439 254.286C630.085 276.884 652.177 274.107 688.407 243.429C697.622 235.602 704.439 231.183 703.429 233.708C701.536 238.632 710.498 255.296 714.917 255.296C716.432 255.296 725.521 247.09 735.241 236.991C748.37 223.356 752.536 220.326 751.147 224.997C741.553 259.841 756.954 267.795 782.706 241.283C792.553 231.057 790.533 229.668 779.424 239.011C764.276 251.761 766.548 231.941 783.843 200.505C794.32 181.442 794.447 180.558 786.62 178.538C783.211 177.781 778.793 176.392 776.647 175.509C773.87 174.499 769.451 179.296 760.867 192.552C731.58 238.632 714.664 244.944 734.736 202.399C747.991 174.499 740.164 165.535 716.305 181.063C706.459 187.502 702.672 194.572 711.761 189.774C729.687 180.18 713.654 214.771 693.204 229.921C615.063 287.489 581.61 240.904 649.021 168.439C679.696 135.488 715.927 126.904 706.711 154.678C702.672 167.05 706.711 173.489 712.644 164.02C732.085 133.468 697.496 107.84 661.266 125.767Z" fill="#9A69AB" stroke="white"/>
<path d="M428.862 143.568C428.484 147.608 426.716 156.066 423.56 169.827L420.278 184.093L405.761 179.548C397.808 177.023 391.243 175.508 391.243 176.266C391.243 177.907 375.969 167.05 367.889 159.727C363.85 156.066 360.946 154.677 360.946 156.571C360.946 161.747 371.045 174.498 374.959 174.498C376.978 174.498 378.62 175.508 378.62 176.771C378.62 178.664 394.021 187.375 399.449 188.638C400.459 188.89 402.226 189.269 403.236 189.648C406.644 190.784 410.179 191.415 414.345 191.794C417.88 192.173 418.132 193.688 415.986 202.904C412.83 216.917 411.694 222.219 410.053 231.057C409.295 235.096 407.654 240.399 406.266 242.797C400.964 252.897 403.11 255.296 417.753 255.296C426.969 255.296 431.766 254.286 432.018 252.14C432.144 250.372 432.649 246.711 433.281 243.934C433.785 241.156 434.543 236.359 434.922 233.203C435.427 230.173 436.563 226.89 437.446 225.88C438.456 224.997 439.214 221.083 439.214 217.422C439.214 199.621 442.875 195.834 459.664 196.844C468.627 197.349 476.201 196.591 477.842 194.95C482.387 190.405 485.164 191.794 483.144 197.854C482.135 201.01 480.872 206.312 480.367 209.847C478.347 222.093 477.969 223.734 476.201 229.163C475.191 232.193 473.929 237.116 473.298 240.146C472.667 243.176 471.531 247.721 470.647 250.499C469.385 254.791 470.521 255.296 482.008 255.296C488.951 255.296 494.885 254.412 495.137 253.402C495.263 252.392 495.768 249.236 496.147 246.459C496.652 243.681 498.545 235.096 500.565 227.522C502.585 219.821 505.741 206.817 507.508 198.485C509.276 190.153 512.432 181.315 514.578 178.79C518.239 174.498 518.112 174.246 511.043 175.761C499.934 178.033 472.54 181.947 457.644 183.462L444.516 184.724L448.05 174.498C451.711 164.02 451.837 163.641 451.837 159.349C451.837 157.96 459.286 156.824 469.258 156.824H486.553L487.689 149.249L488.825 141.674H459.033C442.496 141.674 428.988 142.558 428.862 143.568Z" fill="#AAB7E5" stroke="white"/>
<path d="M492.991 152.405C484.786 163.515 500.565 177.402 510.286 167.681C515.083 162.884 515.461 161.243 512.937 155.688C509.781 148.618 497.409 146.598 492.991 152.405Z" fill="#AAB7E5" stroke="white"/>
<path d="M539.825 156.193C539.699 157.203 539.32 160.359 538.941 163.136C537.805 173.867 534.649 179.548 529.978 179.548C527.327 179.548 524.045 181.694 522.657 184.472C518.365 192.299 519.501 195.329 525.939 194.193C532.629 192.93 532.756 194.319 527.58 216.16C519.879 249.489 522.152 256.685 540.077 254.665C556.11 252.771 576.813 232.951 569.87 226.007C568.355 224.492 552.828 233.203 552.828 235.728C552.828 236.738 551.06 237.622 548.914 237.622C546.263 237.622 545.379 236.107 546.137 233.203C550.177 219.695 553.206 205.934 553.711 200.379C554.09 194.445 555.1 193.814 566.461 193.688C578.328 193.435 578.706 193.183 579.59 185.229L580.6 177.15L569.365 178.665C557.372 180.306 555.605 175.508 562.927 161.874C564.189 159.475 564.568 156.824 563.684 155.94C561.412 153.668 540.33 153.92 539.825 156.193Z" fill="#AAB7E5" stroke="white"/>
<path d="M863.121 166.545C856.935 170.458 847.593 178.664 842.544 184.85C834.086 194.95 833.202 195.455 833.455 189.648C833.96 178.286 833.202 177.023 825.376 177.023C813.257 177.023 799.876 184.724 807.197 187.375C814.772 190.153 814.519 191.668 802.779 216.791C790.66 242.545 790.408 246.459 800.128 251.382C812.878 258.073 826.512 255.927 818.937 248.479C814.519 243.934 815.529 239.894 826.385 217.674C841.408 186.997 865.772 169.827 888.999 173.614C900.613 175.508 902.507 169.953 892.534 163.388C883.571 157.581 875.997 158.339 863.121 166.545Z" fill="#9A69AB" stroke="white"/>
<path d="M908.818 174.498C904.652 180.432 903.895 183.209 906.041 185.355C910.207 189.521 909.449 201.389 904.021 211.867C898.593 222.598 877.385 246.332 879.657 239.136C880.415 236.611 881.803 224.366 882.687 212.12C884.707 185.103 882.939 183.588 862.236 193.056C847.845 199.621 843.679 203.914 854.283 201.262C863.246 198.99 863.373 219.821 854.536 249.236C853.021 254.033 853.905 254.538 864.382 254.665C886.727 255.043 923.967 208.837 924.85 179.8C925.355 164.651 917.655 162.126 908.818 174.498Z" fill="#9A69AB" stroke="white"/>
<path d="M949.34 178.412C937.853 188.891 928.385 203.914 923.84 219.316C912.731 256.433 972.694 267.668 991.125 231.941C997.563 219.695 991.63 218.937 980.774 230.426C962.09 250.12 941.64 251.509 941.64 232.951C941.64 220.579 947.32 215.529 953.885 222.093C962.848 231.057 980.521 222.346 994.028 202.399C1001.22 191.668 1000.85 190.532 985.571 178.917C969.791 166.797 962.343 166.797 949.34 178.412ZM980.774 194.572C972.442 210.731 954.137 221.462 952.118 211.363C950.729 204.293 975.976 180.558 980.647 184.472C983.929 187.249 983.929 188.512 980.774 194.572Z" fill="#9A69AB" stroke="white"/>
<path d="M1027.36 178.033C1001.35 197.096 1002.49 214.897 1029.63 214.897C1051.09 214.897 1042.63 241.409 1015.99 257.947C998.321 268.804 996.175 258.578 1011.58 236.738C1022.81 220.831 1020.29 218.558 1007.03 232.824C987.338 254.034 983.804 265.27 994.029 274.233C1003.37 282.565 1008.8 282.06 1026.35 271.582C1073.05 243.555 1081.64 204.797 1041.24 204.797C1033.04 204.797 1032.28 204.292 1035.18 200.884C1042.38 192.173 1059.55 186.365 1056.9 193.435C1056.01 195.455 1056.39 197.223 1057.53 197.223C1058.79 197.223 1060.43 195.455 1061.31 193.183C1068.76 173.615 1046.8 163.767 1027.36 178.033Z" fill="#9A69AB" stroke="white"/>
<path d="M1057.78 261.229C1057.78 269.183 1065.35 272.339 1069.77 266.279C1074.19 260.093 1072.55 256.684 1064.47 255.801C1058.79 255.043 1057.78 255.927 1057.78 261.229Z" fill="#9A69AB" stroke="white"/>
</g>
<defs>
<clipPath id="clip0_36_395">
<rect width="1451" height="401" fill="white" transform="translate(-11)"/>
</clipPath>
</defs>
</svg>

