<svg width="1440" height="401" viewBox="0 0 1440 401" fill="none" xmlns="http://www.w3.org/2000/svg">
<g clip-path="url(#clip0_36_395)">
<mask id="mask0_36_395" style="mask-type:luminance" maskUnits="userSpaceOnUse" x="-11" y="-8" width="5458" height="646">
<path d="M5447 -8H-11V638H5447V-8Z" fill="white"/>
</mask>
<g mask="url(#mask0_36_395)">
<path d="M2344 346.684C2232.6 317.65 2153.16 322.627 1925.71 322.627C1698.27 322.627 1596.96 357.973 1292.83 368.08C988.682 378.186 864.975 346.463 476.083 318.256C251.222 306.258 48.9151 332.248 -29 338.583V274L2326.22 278.39L2344 346.684Z" fill="#E64EB3"/>
<path d="M-58 8.30871C-57.7999 8.37764 -57.5999 8.44652 -57.4001 8.51533C-4.09727 26.8759 37.7613 41.2943 93.426 51.1434C149.753 61.1097 220.186 66.3926 330.929 66.3926C441.723 66.3926 521.799 55.0126 611.155 42.0157L615.763 41.3453C703.898 28.5214 801.681 14.2938 947.142 7.90564C1145.21 -0.792704 1264.58 14.5935 1435.34 36.6049C1519.8 47.4909 1616.83 59.9974 1742.16 72.0123L1742.18 72.0135L1742.19 72.0144C1926.35 85.0027 2095 63.415 2189.08 51.3719C2206.36 49.1606 2221.12 47.2711 2233 45.9765V126.961L-58 121.317V8.30871Z" fill="#9A69AB" stroke="white" stroke-width="2"/>
<path d="M-28.123 48.92C-27.9021 48.9941 -27.6813 49.0681 -27.4607 49.1421C27.3113 67.5024 70.3203 81.9195 127.515 91.7678C185.391 101.733 257.762 107.016 371.557 107.016C485.401 107.016 567.682 95.6369 659.501 82.64L664.237 81.9694C754.802 69.1454 855.281 54.9175 1004.75 48.5292C1208.29 39.8305 1330.96 55.2183 1506.45 77.2309C1593.23 88.1166 1692.93 100.622 1821.71 112.636L1821.72 112.637L1821.73 112.638C2010.97 125.626 2184.26 104.039 2280.94 91.9961C2298.7 89.7826 2313.88 87.8916 2326.1 86.5968V167.585L-28.123 161.94V48.92Z" fill="#E64EB3" stroke="white" stroke-width="2"/>
<path d="M5447 156H-29V285H5447V156Z" fill="#E64EB3"/>
</g>
</g>
<defs>
<clipPath id="clip0_36_395">
<rect width="1451" height="401" fill="white" transform="translate(-11)"/>
</clipPath>
</defs>
</svg>

