<svg width="306" height="73" viewBox="0 0 306 73" fill="none" xmlns="http://www.w3.org/2000/svg">
<g clip-path="url(#clip0_115_396)">
<mask id="mask0_115_396" style="mask-type:luminance" maskUnits="userSpaceOnUse" x="0" y="-9" width="1152" height="136">
<path d="M1151.03 -8.67578H0V126.646H1151.03V-8.67578Z" fill="white"/>
</mask>
<g mask="url(#mask0_115_396)">
<path d="M496.644 65.622C473.15 59.5402 456.397 60.5827 408.431 60.5827C360.466 60.5827 339.102 67.9869 274.963 70.104C210.822 72.221 184.733 65.5757 102.72 59.667C55.2997 57.1537 12.6354 62.5981 -3.79601 63.925V50.3965L492.894 51.316L496.644 65.622Z" fill="#E64EB3"/>
<path d="M-3.61105 3.24759C-3.56447 3.26311 -3.5179 3.27861 -3.47138 3.29411C8.07943 7.14016 17.1496 10.1602 29.2113 12.2232C41.4167 14.3107 56.679 15.4173 80.6771 15.4173C104.686 15.4173 122.038 13.0337 141.401 10.3111L142.4 10.1707C161.499 7.48433 182.689 4.50392 214.211 3.16572C257.135 1.34355 283.005 4.56693 320.014 9.17805C338.315 11.4583 359.34 14.078 386.498 16.5946L386.501 16.5948L386.503 16.595C426.411 19.3157 462.956 14.7937 483.345 12.271C487.09 11.8073 490.292 11.4112 492.869 11.14V28.1051L-3.61105 26.9226V3.24759Z" fill="#E64EB3" stroke="white"/>
<path d="M1151.03 25.6783H-3.79601V52.7008H1151.03V25.6783Z" fill="#E64EB3"/>
</g>
</g>
<defs>
<clipPath id="clip0_115_396">
<rect width="306" height="73" fill="white"/>
</clipPath>
</defs>
</svg>
